HIERARCHY
ROOT Hips
{
	OFFSET -224.689499 91.882057 -431.625488
	CHANNELS 6 Xposition Yposition Zposition Zrotation Yrotation Xrotation 
	JOINT LeftUpLeg
	{
		OFFSET 0.103456 1.857840 10.548509
		CHANNELS 3 Zrotation Yrotation Xrotation
		JOINT LeftLeg
		{
			OFFSET 43.500000 -0.000042 0.000010
			CHANNELS 3 Zrotation Yrotation Xrotation
			JOINT LeftFoot
			{
				OFFSET 42.372192 0.000019 0.000000
				CHANNELS 3 Zrotation Yrotation Xrotation
				JOINT LeftToe
				{
					OFFSET 17.299999 -0.000000 0.000003
					CHANNELS 3 Zrotation Yrotation Xrotation
					End Site
					{
						OFFSET 0.000000 0.000000 0.000000
					}
				}
			}
		}
	}
	JOINT RightUpLeg
	{
		OFFSET 0.103456 1.857823 -10.548508
		CHANNELS 3 Zrotation Yrotation Xrotation
		JOINT RightLeg
		{
			OFFSET 43.500042 -0.000027 0.000004
			CHANNELS 3 Zrotation Yrotation Xrotation
			JOINT RightFoot
			{
				OFFSET 42.372261 0.000000 0.000010
				CHANNELS 3 Zrotation Yrotation Xrotation
				JOINT RightToe
				{
					OFFSET 17.299994 -0.000006 0.000017
					CHANNELS 3 Zrotation Yrotation Xrotation
					End Site
					{
						OFFSET 0.000000 0.000000 0.000000
					}
				}
			}
		}
	}
	JOINT Spine
	{
		OFFSET 6.901967 -2.603732 -0.000003
		CHANNELS 3 Zrotation Yrotation Xrotation
		JOINT Spine1
		{
			OFFSET 12.588099 0.000010 0.000008
			CHANNELS 3 Zrotation Yrotation Xrotation
			JOINT Spine2
			{
				OFFSET 12.343201 -0.000018 -0.000005
				CHANNELS 3 Zrotation Yrotation Xrotation
				JOINT Neck
				{
					OFFSET 25.832890 0.000023 0.000007
					CHANNELS 3 Zrotation Yrotation Xrotation
					JOINT Head
					{
						OFFSET 11.766609 -0.000008 -0.000006
						CHANNELS 3 Zrotation Yrotation Xrotation
						End Site
						{
							OFFSET 0.000000 0.000000 0.000000
						}
					}
				}
				JOINT LeftShoulder
				{
					OFFSET 19.745909 -1.480347 6.000101
					CHANNELS 3 Zrotation Yrotation Xrotation
					JOINT LeftArm
					{
						OFFSET 11.284133 0.000018 -0.000020
						CHANNELS 3 Zrotation Yrotation Xrotation
						JOINT LeftForeArm
						{
							OFFSET 33.000050 -0.000013 0.000019
							CHANNELS 3 Zrotation Yrotation Xrotation
							JOINT LeftHand
							{
								OFFSET 25.200005 0.000032 0.000011
								CHANNELS 3 Zrotation Yrotation Xrotation
								End Site
								{
									OFFSET 0.000000 0.000000 0.000000
								}
							}
						}
					}
				}
				JOINT RightShoulder
				{
					OFFSET 19.746101 -1.480358 -6.000078
					CHANNELS 3 Zrotation Yrotation Xrotation
					JOINT RightArm
					{
						OFFSET 11.284140 -0.000000 -0.000001
						CHANNELS 3 Zrotation Yrotation Xrotation
						JOINT RightForeArm
						{
							OFFSET 33.000103 0.000016 -0.000001
							CHANNELS 3 Zrotation Yrotation Xrotation
							JOINT RightHand
							{
								OFFSET 25.199762 0.000123 0.000432
								CHANNELS 3 Zrotation Yrotation Xrotation
								End Site
								{
									OFFSET 0.000000 0.000000 0.000000
								}
							}
						}
					}
				}
			}
		}
	}
}
MOTION
Frames: 7
Frame Time: 0.033333
102.892303 75.859398 -347.120087 96.808089 -10.709674 67.050813 120.431644 6.998702 162.031567 -60.874225 -1.653299 -23.392964 89.066227 16.964885 7.569362 21.454555 0.003086 -0.000001 149.474578 -10.809789 -147.727798 -56.369510 5.344235 -19.335354 91.255596 14.328169 5.963886 21.454558 -0.003109 -0.000017 15.299185 -4.149235 1.731741 20.540896 -8.539386 2.704058 20.219330 -8.522783 2.755926 -5.358858 -17.444587 -22.043442 -26.161948 25.085903 -37.993528 138.781999 -75.041922 40.548736 -56.491955 41.677937 -57.894370 -78.345719 -9.822885 2.485113 14.793662 4.938946 -71.023866 117.474541 82.121441 -61.507056 -66.251558 -49.629954 24.328137 -109.048485 -1.295202 -3.105275 5.147704 23.440292 -1.828694 
100.407997 76.188606 -347.141815 97.976741 -11.316732 67.846311 120.294658 5.540602 161.161291 -61.688083 -1.858000 -21.594784 88.981164 15.499994 5.582640 21.454548 0.003092 -0.000000 147.033714 -8.142397 -147.478237 -59.757994 5.464249 -20.775127 82.210616 18.071285 13.488066 21.454562 -0.003114 -0.000018 15.380358 -4.136133 1.475415 20.722876 -8.469085 2.189483 20.401229 -8.455561 2.240937 -4.318995 -18.099889 -22.611929 -26.762739 24.846150 -38.644845 137.868789 -75.042612 41.474784 -57.860684 41.744689 -57.990417 -78.071712 -9.944936 2.478976 14.774126 4.921909 -70.991572 115.739372 82.282428 -63.233837 -65.743474 -48.867172 24.315320 -108.538912 -1.180610 -3.090949 5.239879 23.343116 -1.875565 
97.756012 76.810173 -347.014801 98.405534 -12.013509 68.952085 120.864432 3.564500 160.576217 -61.969596 -2.166041 -19.451132 88.886033 13.917669 4.459261 21.454555 0.003104 0.000001 143.894969 -5.772409 -147.196942 -66.312661 4.667016 -15.927146 79.101015 14.291310 10.920908 21.454560 -0.003108 -0.000014 15.389656 -3.983670 1.260511 20.754758 -8.128314 1.788114 20.433315 -8.117238 1.837490 -2.577411 -17.832068 -23.249836 -27.907429 24.551964 -39.219558 135.246092 -75.143979 44.125286 -58.412912 42.262851 -57.753470 -78.144693 -9.907242 2.479467 14.628474 4.868962 -70.414107 116.821220 82.353374 -62.142591 -64.769209 -48.523033 23.722775 -108.621509 -1.235237 -3.090777 5.385911 23.294960 -1.412853 
95.229332 77.270607 -346.776489 98.353843 -12.379544 69.919499 121.622733 1.535900 160.172198 -62.516728 -2.215838 -17.597361 88.911783 12.554823 3.665058 21.454553 0.003091 -0.000000 140.543368 -3.498199 -147.962497 -75.289182 2.873841 -8.521236 83.287293 8.265333 10.131728 21.454565 -0.003114 -0.000022 15.393264 -3.735290 1.136371 20.766454 -7.613420 1.585416 20.445410 -7.603584 1.631633 -1.283933 -17.290064 -23.903499 -28.392615 24.135752 -39.559110 134.734224 -75.152653 44.643107 -58.868314 42.468405 -56.548994 -77.975687 -9.946187 2.474946 14.456558 4.848981 -69.934403 120.336950 82.336913 -58.615775 -63.436270 -48.552355 22.693399 -108.948614 -1.290540 -3.101230 5.275575 23.036958 -1.817315 
92.723701 77.703392 -346.571808 98.013078 -12.467851 70.512510 122.511177 -0.465188 160.527491 -62.965178 -2.245476 -16.332852 88.822580 11.558955 2.685321 21.454551 0.003087 -0.000001 137.283510 -1.490293 -150.215107 -84.324327 0.990038 -3.343559 82.883642 4.099860 7.762428 21.454560 -0.003109 -0.000019 15.449097 -3.483342 1.065836 20.879031 -7.101421 1.486849 20.558376 -7.092177 1.529926 -0.868510 -16.717079 -24.456117 -28.812176 23.974114 -40.006378 134.891947 -75.363064 44.467455 -59.777652 42.535836 -55.933427 -77.632388 -9.998786 2.463934 14.386482 4.877321 -69.823446 122.287994 82.407510 -56.650894 -62.707700 -48.775590 22.120691 -109.077418 -1.297801 -3.106354 5.232594 22.965167 -2.137183 
90.197067 78.286903 -346.340912 97.753360 -12.537599 70.733186 123.486036 -2.120098 161.502268 -62.885005 -2.191501 -15.607928 88.310705 10.841113 1.080501 21.454551 0.003081 -0.000001 133.992165 0.232305 -153.815341 -91.919969 -0.766574 -0.089651 78.526330 1.691559 5.997914 21.454558 -0.003107 -0.000018 15.481575 -3.338960 1.039024 20.943629 -6.810462 1.457661 20.623194 -6.801399 1.498956 -0.588662 -15.796629 -24.856269 -29.360251 23.973541 -40.374409 133.029108 -75.660259 46.330280 -60.591264 42.789168 -55.899255 -77.480874 -10.179225 2.470041 14.321232 4.673879 -69.943036 124.557611 82.371822 -54.373985 -62.262495 -49.175586 21.832273 -108.997197 -1.283927 -3.108291 5.206999 23.100473 -1.952705 
87.638283 78.883369 -346.086700 97.440278 -12.589242 70.874790 124.494568 -3.662193 162.804635 -62.589893 -2.133304 -15.177478 87.672192 10.283389 -0.682846 21.454550 0.003091 -0.000001 130.859854 1.845607 -158.314878 -97.427389 -2.169097 2.157839 79.110386 0.165860 6.205205 21.454562 -0.003110 -0.000021 15.523545 -3.208840 1.065704 21.024499 -6.557548 1.531825 20.704252 -6.548043 1.571577 -0.685260 -14.873483 -25.005032 -29.615475 23.680971 -40.296712 131.901007 -75.835905 47.457794 -61.346150 42.491734 -55.516918 -76.894673 -10.491662 2.466797 14.042585 4.659571 -69.495597 127.754153 82.401185 -51.159018 -62.261088 -49.618005 21.808553 -108.839782 -1.232136 -3.108973 5.051023 23.151679 -2.151987 
